<svg preserveAspectRatio="none" overflow="visible" style="display: block;" width="337" height="44.0001" viewBox="0 0 337 44.0001" fill="none" xmlns="http://www.w3.org/2000/svg">
<g id="Frame 55">
<path id="Rectangle 1" d="M331 1.17893e-05C334.314 1.1963e-05 337 2.68631 337 6.00002C337 9.31374 334.314 12 331 12L106 12C102.686 12 100 9.31373 100 6.00001C100 2.6863 102.686 -1.73628e-07 106 0L331 1.17893e-05Z" fill="#00B3E4"/>
<path id="Rectangle 2" d="M331 16C334.314 16 337 18.6863 337 22C337 25.3138 334.314 28.0001 331 28.0001L5.99999 28.0001C2.68628 28.0001 -1.94783e-06 25.3138 -1.19209e-06 22C-4.3636e-07 18.6863 2.6863 16 6.00001 16L331 16Z" fill="#EF4A5F"/>
<path id="Rectangle 3" d="M331 32.0001C334.314 32.0001 337 34.6863 337 38.0001C337 41.3138 334.314 44.0001 331 44.0001L243 44.0001C239.686 44.0001 237 41.3138 237 38.0001C237 34.6863 239.686 32.0001 243 32.0001L331 32.0001Z" fill="#86C7BB"/>
</g>
</svg>
