<svg preserveAspectRatio="none" overflow="visible" style="display: block;" width="27" height="27" viewBox="0 0 27 27" fill="none" xmlns="http://www.w3.org/2000/svg">
<path id="Vector" d="M9.69923 1.27238C10.7887 0.44736 12.1251 0 13.5 0C14.8749 0 16.2113 0.44736 17.3008 1.27238L24.57 6.7742C25.3262 7.34686 25.9386 8.08274 26.36 8.92508C26.7813 9.76742 27.0003 10.6937 27 11.6325V20.871C27 22.4965 26.3435 24.0554 25.1751 25.2048C24.0066 26.3543 22.4217 27 20.7692 27H6.23077C4.57827 27 2.99345 26.3543 1.82495 25.2048C0.656455 24.0554 2.19188e-07 22.4965 2.19188e-07 20.871V11.6325C-0.000252902 10.6937 0.218727 9.76742 0.640047 8.92508C1.06137 8.08274 1.67377 7.34686 2.43 6.7742L9.69923 1.27238ZM11.4231 13.7204C9.99 13.7204 8.82692 14.8645 8.82692 16.2742V23.9355H18.1731V16.2742C18.1731 14.8645 17.01 13.7204 15.5769 13.7204H11.4231Z" fill="white"/>
</svg>
