<svg preserveAspectRatio="none" overflow="visible" style="display: block;" width="49.895" height="45.2514" viewBox="0 0 49.895 45.2514" fill="none" xmlns="http://www.w3.org/2000/svg">
<g id="Group">
<path id="Vector" d="M22.625 27.2098H27.2083C28.4239 27.2098 29.5897 26.7269 30.4492 25.8673C31.3088 25.0078 31.7917 23.842 31.7917 22.6264C31.7917 21.4108 31.3088 20.2451 30.4492 19.3855C29.5897 18.526 28.4239 18.0431 27.2083 18.0431H20.3333C18.9583 18.0431 17.8125 18.5014 17.125 19.4181L4.29167 31.7931" stroke="white" stroke-width="4" stroke-linecap="round" stroke-linejoin="round"/>
<path id="Vector_2" d="M30.5313 25.8118L42.1042 15.0548C43.6992 13.4598 45.5417 10.8243 45.5417 8.30351C45.542 7.02786 45.1551 5.78215 44.4323 4.73106C43.7094 3.67997 42.6846 2.87298 41.4934 2.41678C40.3021 1.96058 39.0004 1.87664 37.7604 2.17606C36.5203 2.47548 35.4004 3.14417 34.5485 4.09372C34.4893 4.15802 34.4174 4.20935 34.3373 4.24445C34.2572 4.27956 34.1708 4.29769 34.0833 4.29769C33.9959 4.29769 33.9094 4.27956 33.8294 4.24445C33.7493 4.20935 33.6774 4.15802 33.6181 4.09372C32.7663 3.14417 31.6463 2.47548 30.4063 2.17606C29.1663 1.87664 27.8646 1.96058 26.6733 2.41678C25.482 2.87298 24.4572 3.67997 23.7344 4.73106C23.0116 5.78215 22.6247 7.02786 22.625 8.30351C22.625 11.0535 24.4629 13.4552 26.0625 15.0548L34.0833 22.5118M2 29.5014L15.75 43.2514" stroke="white" stroke-width="4" stroke-linecap="round" stroke-linejoin="round"/>
<path id="Vector_3" d="M13.4583 40.9598L17.125 37.7514C17.8125 36.8348 18.9583 36.3764 20.3333 36.3764H29.5C32.0208 36.3764 34.3125 35.4598 35.9167 33.6264L46.4583 23.5431C47.3427 22.7074 47.8588 21.5546 47.8932 20.3384C47.9276 19.1221 47.4774 17.942 46.6417 17.0577C45.806 16.1733 44.6532 15.6572 43.4369 15.6228C42.2207 15.5885 41.0406 16.0386 40.1562 16.8743" stroke="white" stroke-width="4" stroke-linecap="round" stroke-linejoin="round"/>
</g>
</svg>
