<svg preserveAspectRatio="none" overflow="visible" style="display: block;" width="44.5115" height="44" viewBox="0 0 44.5115 44" fill="none" xmlns="http://www.w3.org/2000/svg">
<g id="Group">
<path id="Vector" d="M17.418 2.05273C23.4865 1.49328 29.2762 5.41056 30.9043 11.3125C32.3721 16.6331 30.2865 22.1086 25.623 25.2373L22.5303 27.3125L25.9688 28.7441C31.4917 31.0451 35.0037 36.1882 35.0879 42H2V40.9131C2.61347 35.5247 5.89364 30.9105 11.1133 28.7402L14.5527 27.3105L11.4609 25.2334C6.77296 22.0845 4.6968 16.576 6.20703 11.2324C7.60758 6.27953 12.0112 2.55083 17.418 2.05273Z" stroke="white" stroke-width="4"/>
<path id="Vector_2" d="M42.834 42.1599C41.579 42.2127 40.7947 41.3822 40.7807 40.221C40.7133 34.649 37.0715 29.7834 31.7051 28.1121C30.8638 27.8503 30.3235 27.2288 30.2874 26.3812C30.2537 25.5989 30.7755 24.7432 31.661 24.5422C35.5201 23.6647 38.4032 20.4519 38.8331 16.6442C39.2828 12.6596 37.0935 8.85768 33.3855 7.21744C32.3896 6.77752 31.991 5.73227 32.3826 4.78924C32.7742 3.84622 33.927 3.42008 34.9066 3.85541C39.2236 5.77477 42.095 9.80071 42.5389 14.3206C43.0095 19.108 40.8295 23.6601 36.6833 26.3547C41.6034 29.4112 44.5515 34.8121 44.5109 40.4484C44.5039 41.3972 43.8357 42.1185 42.834 42.1599Z" fill="white"/>
</g>
</svg>
