<svg preserveAspectRatio="none" overflow="visible" style="display: block;" width="58" height="58" viewBox="0 0 58 58" fill="none" xmlns="http://www.w3.org/2000/svg">
<g id="Frame 60">
<path id="Vector" d="M48.75 27.0833C48.75 39.3396 40.27 50.8008 28.875 53.5833C17.48 50.8008 9 39.3396 9 27.0833V13.8333L28.875 5L48.75 13.8333V27.0833ZM28.875 49.1667C37.1562 46.9583 44.3333 37.1092 44.3333 27.5692V16.7042L28.875 9.81417L13.4167 16.7042V27.5692C13.4167 37.1092 20.5937 46.9583 28.875 49.1667ZM35.6104 38.125L28.8087 34.0396L22.0292 38.125L23.8179 30.3958L17.8333 25.2283L25.7392 24.5438L28.8087 17.2562L31.9004 24.5217L39.8063 25.2062L33.7996 30.3958L35.6104 38.125Z" fill="white"/>
</g>
</svg>
